<?xml version="1.0" encoding="UTF-8"?>
<svg id="Layer_1" xmlns="http://www.w3.org/2000/svg" version="1.1" viewBox="0 0 2859.16 1233.34">
  <!-- Generator: Adobe Illustrator 30.3.0, SVG Export Plug-In . SVG Version: 2.1.3 Build 182)  -->
  <defs>
    <style>
      .st0 {
        fill: #ffab31;
      }
    </style>
  </defs>
  <path class="st0" d="M0,0h162.72l373.42,996.94h3.43L924.99,0h152.46l-474.49,1212.79h-138.74L0,0Z"/>
  <path class="st0" d="M1192.37,339.32h133.63v873.47h-133.63V339.32h0Z"/>
  <path class="st0" d="M1500.85,0h133.63v1212.79h-133.63V0Z"/>
  <path class="st0" d="M1809.33,0h133.63v1212.79h-133.63V0Z"/>
  <path class="st0" d="M2830.04,1067.19c-47.95,61.67-100.49,104.77-157.58,129.34-57.12,24.54-123.34,36.81-198.72,36.81-62.79,0-119.35-11.12-169.58-33.41-50.26-22.26-92.8-52.24-127.6-89.91-34.85-37.69-61.67-82.24-80.53-133.63-18.83-51.38-28.26-106.19-28.26-164.43,0-61.67,10.29-118.46,30.83-170.43,20.55-51.97,49.11-96.5,85.65-133.63,36.54-37.1,79.94-65.96,130.2-86.5,50.23-20.55,105.04-30.83,164.43-30.83,55.94,0,107.35,9.43,154.17,28.26,46.8,18.83,87.07,46.27,120.77,82.22,33.67,35.98,59.66,79.97,77.93,131.91,18.27,51.97,27.41,111.07,27.41,177.29v42.81h-647.5c2.28,34.26,10.56,67.11,24.83,98.5,14.28,31.42,32.82,58.83,55.7,82.22,22.82,23.41,49.67,41.98,80.5,55.67,30.83,13.72,64.51,20.57,101.05,20.57,58.24,0,107.35-10.29,147.32-30.83,39.97-20.57,75.95-50.82,107.93-90.79l101.05,78.79h0ZM2715.27,740.01c-2.3-68.53-24.57-123.34-66.81-164.43-42.25-41.12-100.49-61.67-174.72-61.67s-134.19,20.55-179.84,61.67c-45.7,41.1-73.11,95.91-82.24,164.43h503.62,0Z"/>
  <path class="st0" d="M1161.54,97.65c0-26.25,9.43-49.08,28.26-68.53C1208.66,9.72,1231.78,0,1259.18,0s50.52,9.72,69.38,29.12c18.83,19.45,28.26,42.27,28.26,68.53,0,28.56-9.16,51.97-27.41,70.24-18.3,18.27-41.71,27.41-70.24,27.41s-51.97-9.14-70.24-27.41-27.41-41.68-27.41-70.24h.02Z"/>
</svg>